<svg xmlns="http://www.w3.org/2000/svg" viewBox="0 0 256 256" role="img" aria-labelledby="title">
  <title>Lector de libros</title>
  <rect width="256" height="256" rx="48" fill="#264f3d"/>
  <path d="M56 70c0-8.837 7.163-16 16-16h42c24.301 0 44 19.699 44 44v92c0-13.255-10.745-24-24-24H72c-8.837 0-16-7.163-16-16V70z" fill="#f2e7d1"/>
  <path d="M200 70c0-8.837-7.163-16-16-16h-42c-24.301 0-44 19.699-44 44v92c0-13.255 10.745-24 24-24h62c8.837 0 16-7.163 16-16V70z" fill="#d39b5f"/>
  <path d="M128 96v94" stroke="#13231a" stroke-width="10" stroke-linecap="round"/>
  <path d="M96 112h16" stroke="#13231a" stroke-width="8" stroke-linecap="round"/>
  <path d="M144 112h16" stroke="#13231a" stroke-width="8" stroke-linecap="round"/>
</svg>