<svg xmlns="http://www.w3.org/2000/svg" xml:space="preserve" viewBox="0 0 512 512"><path d="M95.2 89.8c15.8 12.9 21.8 12 51.7 10l281.9-16.9c6 0 1-6-1-7L381 42c-8.9-7-20.9-14.9-43.8-13L64.3 49c-10 .9-12 5.9-8 9.9zm16.9 65.7v296.6c0 15.9 7.9 21.9 25.8 20.9l309.8-17.9c17.9-1 20-11.9 20-24.9V135.6c0-13-5-19.9-16-18.9L128 135.6c-12 1-15.9 6.9-15.9 19.9m305.8 15.8c2 9 0 17.9-9 19l-14.9 3v218.9c-13 7-24.9 11-34.8 11-16 0-20-5-31.9-19.9L229.6 250v148.3l30.9 7s0 17.9-24.9 17.9l-68.7 4c-2-4 0-14 7-15.9l17.9-5v-196l-24.9-2c-2-9 3-21.9 16.9-22.9l73.7-5 101.7 155.3V198.3l-25.9-3c-2-10.9 5.9-18.9 15.9-19.8zM41.3 22.1l284-20.9c34.8-3 43.8-1 65.7 14.9l90.7 63.7c14.9 10.9 19.9 13.9 19.9 25.8V455c0 21.9-8 34.8-35.8 36.8L136 511.7c-20.8 1-30.8-2-41.8-15.9l-66.7-86.7c-11.9-15.9-16.9-27.8-16.9-41.7V56.9c-.2-17.9 8-31.8 30.8-34.8"/></svg>